<?xml version="1.0" encoding="utf-8"?>
<!-- Generator: Adobe Illustrator 24.0.1, SVG Export Plug-In . SVG Version: 6.00 Build 0)  -->
<svg version="1.1" id="레이어_1" xmlns="http://www.w3.org/2000/svg" xmlns:xlink="http://www.w3.org/1999/xlink" x="0px"
	 y="0px" viewBox="0 0 25 25" style="enable-background:new 0 0 25 25;" xml:space="preserve" width="25" height="25">
<style type="text/css">
	.st0{fill:#959595;}
</style>
<path class="st0" d="M21.9,0H3.1C1.4,0,0,1.4,0,3.1v18.8C0,23.6,1.4,25,3.1,25h18.8c1.7,0,3.1-1.4,3.1-3.1V3.1C25,1.4,23.6,0,21.9,0
	z M17.4,11.9c-0.8,1.4-2.3,3.6-4.6,6.5l-2.3,0.2l-1.8-10H6.4v-1C7,7.3,7.7,7.1,8.6,6.9c0.8-0.2,1.4-0.4,1.7-0.4c0.7,0,1,0.3,1.2,0.9
	l1.5,8.6c0.5-0.6,0.9-1.2,1.2-1.6c0.5-0.7,0.9-1.5,1.3-2.4c0.4-0.9,0.6-1.7,0.6-2.4c0-0.4-0.1-0.8-0.4-1c-0.2-0.3-0.6-0.6-1.2-1
	c0.6-0.8,1.4-1.2,2.3-1.2c0.5,0,0.9,0.1,1.2,0.4c0.3,0.3,0.5,0.7,0.5,1.3C18.7,9.2,18.3,10.4,17.4,11.9z"/>
</svg>
