<svg xmlns="http://www.w3.org/2000/svg" width="164" height="240.328"><path d="M163.479 96H87v10h66.854c.508 11-.759 21.037-3.799 30.068-3.039 9.035-7.559 16.66-13.551 23.074-5.995 6.42-13.297 11.35-21.908 14.895-8.61 3.546-18.322 5.295-29.127 5.295-12.497 0-23.388-2.25-32.671-6.725-9.288-4.473-17.014-10.518-23.175-18.115-6.166-7.6-10.807-16.507-13.93-26.725-3.126-10.214-4.686-21.062-4.686-32.548 0-11.311 1.603-22.161 4.812-32.546 3.206-10.384 7.935-19.542 14.183-27.48 6.245-7.936 14.014-14.268 23.302-18.996 9.284-4.726 20.009-7.092 32.166-7.092 16.717 0 30.561 4.596 41.537 13.543C137.98 31.6 145.579 44 149.802 60h10.638c-1.521-10-4.559-18.015-9.118-25.447-4.56-7.428-10.175-13.82-16.843-19.056-6.673-5.232-14.228-9.231-22.668-11.935C103.365.863 94.5-.505 85.217-.505c-13.677 0-25.795 2.569-36.346 7.718-10.554 5.152-19.462 12.114-26.72 20.892-7.263 8.781-12.791 18.953-16.59 30.517C1.762 70.19-.138 82.39-.138 95.219c0 13.004 1.856 25.201 5.572 36.598 3.711 11.397 9.201 21.319 16.463 29.761 7.258 8.444 16.166 15.113 26.72 20.008 10.55 4.895 22.668 7.346 36.345 7.346 7.935 0 15.576-1.014 22.922-3.04 7.344-2.026 14.014-4.852 20.008-8.485 5.992-3.629 11.184-8.104 15.576-13.423 4.391-5.319 7.589-11.271 9.785-17.856l.746-1V183h9.301l.179-87zM107 230.068c-22.204 0-40.796-15.383-45.751-36.068h-9.741c5.12 25.976 28.015 45.568 55.492 45.568 41.949 0 52.673-30.595 55.434-45.568h-9.447c-4.992 20.69-23.778 36.068-45.987 36.068z"/><path fill="#912C2C" d="M163.4 186h.006-.006z"/></svg>